# xmcd
#
# Track frame offsets:
#	150
#	12107
#	21149
#	35872
#	52404
#	62825
#	71925
#	86541
#	94644
#	103520
#
# Disc length: 1558 seconds
#
# Revision: 0
# Processed by: cddbd v1.5.2PL0 Copyright (c) Steve Scherf et al.
# Submitted via: EasyCDDAExtractor 9.0.0.1
#
DISCID=8806140a
DTITLE=Danny Davis and The Nashville Brass - How I Love Them Ol' Songs
DYEAR=2008
DGENRE=Country
TTITLE0=How I Love Them Ol' Songs
TTITLE1=Sweet Gypsy Rose
TTITLE2=Old Fashioned Love Song
TTITLE3=Somewhere My Love
TTITLE4=Southern Nights
TTITLE5=One Of Those Songs
TTITLE6=My Melody Of Love
TTITLE7=Baby, You're Lookin' For Me
TTITLE8=Smile, Smile, Smile
TTITLE9=Another Somebody Done Somebody Wrong Song
EXTD=
EXTT0=
EXTT1=
EXTT2=
EXTT3=
EXTT4=
EXTT5=
EXTT6=
EXTT7=
EXTT8=
EXTT9=
PLAYORDER=
